<svg width="36" height="23" viewBox="0 0 36 23" fill="none" xmlns="http://www.w3.org/2000/svg">
<path d="M6.80753 22L0.564631 0.181818H5.60369L9.2152 15.3416H9.39631L13.3807 0.181818H17.6953L21.669 15.3736H21.8608L25.4723 0.181818H30.5114L24.2685 22H19.7727L15.6179 7.73508H15.4474L11.3033 22H6.80753ZM32.6474 22.277C31.9442 22.277 31.3406 22.0284 30.8363 21.5312C30.3391 21.027 30.0906 20.4233 30.0906 19.7202C30.0906 19.0241 30.3391 18.4276 30.8363 17.9304C31.3406 17.4332 31.9442 17.1847 32.6474 17.1847C33.3292 17.1847 33.9258 17.4332 34.4371 17.9304C34.9485 18.4276 35.2042 19.0241 35.2042 19.7202C35.2042 20.1889 35.0835 20.6186 34.842 21.0092C34.6076 21.3928 34.2987 21.7017 33.9151 21.9361C33.5316 22.1634 33.109 22.277 32.6474 22.277Z" fill="white"/>
</svg>
