<svg width="130" height="25" viewBox="0 0 130 23" fill="#f5efe6" xmlns="http://www.w3.org/2000/svg">
  <path d="M6.80753 22L0.564631 0.181818H5.60369L9.2152 15.3416H9.39631L13.3807 0.181818H17.6953L21.669 15.3736H21.8608L25.4723 0.181818H30.5114L24.2685 22H19.7727L15.6179 7.73508H15.4474L11.3033 22H6.80753ZM38.5307 22.3196C36.8759 22.3196 35.4448 21.968 34.2374 21.2649C33.0371 20.5547 32.1103 19.5675 31.4569 18.3033C30.8034 17.032 30.4767 15.5582 30.4767 13.8821C30.4767 12.1918 30.8034 10.7145 31.4569 9.45028C32.1103 8.17898 33.0371 7.19176 34.2374 6.48864C35.4448 5.77841 36.8759 5.4233 38.5307 5.4233C40.1855 5.4233 41.6131 5.77841 42.8134 6.48864C44.0208 7.19176 44.9512 8.17898 45.6046 9.45028C46.258 10.7145 46.5847 12.1918 46.5847 13.8821C46.5847 15.5582 46.258 17.032 45.6046 18.3033C44.9512 19.5675 44.0208 20.5547 42.8134 21.2649C41.6131 21.968 40.1855 22.3196 38.5307 22.3196ZM38.552 18.804C39.3049 18.804 39.9334 18.5909 40.4377 18.1648C40.9419 17.7315 41.3219 17.142 41.5776 16.3963C41.8404 15.6506 41.9718 14.8018 41.9718 13.8501C41.9718 12.8984 41.8404 12.0497 41.5776 11.304C41.3219 10.5582 40.9419 9.96875 40.4377 9.53551C39.9334 9.10227 39.3049 8.88565 38.552 8.88565C37.7921 8.88565 37.1529 9.10227 36.6344 9.53551C36.123 9.96875 35.736 10.5582 35.4732 11.304C35.2175 12.0497 35.0897 12.8984 35.0897 13.8501C35.0897 14.8018 35.2175 15.6506 35.4732 16.3963C35.736 17.142 36.123 17.7315 36.6344 18.1648C37.1529 18.5909 37.7921 18.804 38.552 18.804ZM49.5357 22V5.63636H53.9355V8.49148H54.106C54.4043 7.47585 54.905 6.70881 55.6081 6.19034C56.3113 5.66477 57.1209 5.40199 58.0371 5.40199C58.2644 5.40199 58.5094 5.41619 58.7722 5.4446C59.035 5.47301 59.2658 5.51207 59.4647 5.56179V9.58878C59.2516 9.52486 58.9569 9.46804 58.5804 9.41832C58.204 9.36861 57.8596 9.34375 57.5471 9.34375C56.8794 9.34375 56.2828 9.48935 55.7573 9.78054C55.2388 10.0646 54.8269 10.4624 54.5215 10.9737C54.2232 11.4851 54.074 12.0746 54.074 12.7422V22H49.5357ZM66.3494 0.181818V22H61.8111V0.181818H66.3494ZM76.0147 22.2663C74.7718 22.2663 73.6461 21.9467 72.6376 21.3075C71.6362 20.6612 70.8407 19.7131 70.2512 18.4631C69.6689 17.206 69.3777 15.6648 69.3777 13.8395C69.3777 11.9645 69.6795 10.4055 70.2832 9.16264C70.8869 7.91264 71.6895 6.97869 72.6909 6.3608C73.6994 5.7358 74.8038 5.4233 76.0041 5.4233C76.9203 5.4233 77.6838 5.57955 78.2946 5.89205C78.9125 6.19744 79.4096 6.58097 79.786 7.04261C80.1696 7.49716 80.4608 7.9446 80.6596 8.38494H80.7981V0.181818H85.3258V22H80.8514V19.3793H80.6596C80.4466 19.8338 80.1447 20.2848 79.7541 20.7322C79.3706 21.1726 78.8699 21.5384 78.252 21.8295C77.6412 22.1207 76.8954 22.2663 76.0147 22.2663ZM77.4529 18.6548C78.1845 18.6548 78.8024 18.456 79.3066 18.0582C79.818 17.6534 80.2086 17.0888 80.4785 16.3643C80.7555 15.6399 80.894 14.7912 80.894 13.8182C80.894 12.8452 80.7591 12 80.4892 11.2827C80.2193 10.5653 79.8287 10.0114 79.3173 9.62074C78.8059 9.23011 78.1845 9.0348 77.4529 9.0348C76.7072 9.0348 76.0787 9.23722 75.5673 9.64204C75.0559 10.0469 74.6689 10.608 74.4061 11.3253C74.1433 12.0426 74.0119 12.8736 74.0119 13.8182C74.0119 14.7699 74.1433 15.6115 74.4061 16.343C74.676 17.0675 75.063 17.6357 75.5673 18.0476C76.0787 18.4524 76.7072 18.6548 77.4529 18.6548ZM96.5146 22.3196C94.8313 22.3196 93.3825 21.9787 92.168 21.2969C90.9606 20.608 90.0302 19.6349 89.3768 18.3778C88.7234 17.1136 88.3967 15.6186 88.3967 13.8928C88.3967 12.2095 88.7234 10.7322 89.3768 9.46094C90.0302 8.18963 90.9499 7.19886 92.136 6.48864C93.3292 5.77841 94.7283 5.4233 96.3335 5.4233C97.413 5.4233 98.418 5.5973 99.3484 5.94531C100.286 6.28622 101.103 6.80114 101.799 7.49006C102.502 8.17898 103.049 9.04545 103.439 10.0895C103.83 11.1264 104.025 12.3409 104.025 13.733V14.9794H90.2077V12.1669H99.7532C99.7532 11.5135 99.6112 10.9347 99.3271 10.4304C99.043 9.92614 98.6488 9.53196 98.1445 9.24787C97.6474 8.95668 97.0685 8.81108 96.408 8.81108C95.7191 8.81108 95.1083 8.97088 94.5756 9.29048C94.0501 9.60298 93.6381 10.0256 93.3398 10.5582C93.0415 11.0838 92.8888 11.6697 92.8817 12.3161V14.9901C92.8817 15.7997 93.0309 16.4993 93.3292 17.0888C93.6346 17.6783 94.0643 18.1328 94.6183 18.4524C95.1722 18.772 95.8292 18.9318 96.5891 18.9318C97.0934 18.9318 97.555 18.8608 97.9741 18.7188C98.3931 18.5767 98.7518 18.3636 99.0501 18.0795C99.3484 17.7955 99.5756 17.4474 99.7319 17.0355L103.929 17.3125C103.716 18.321 103.279 19.2017 102.619 19.9545C101.966 20.7003 101.12 21.2827 100.083 21.7017C99.0536 22.1136 97.864 22.3196 96.5146 22.3196ZM111.653 22.3089C110.609 22.3089 109.679 22.1278 108.862 21.7656C108.045 21.3963 107.399 20.853 106.923 20.1357C106.454 19.4112 106.22 18.5092 106.22 17.4297C106.22 16.5206 106.387 15.7571 106.721 15.1392C107.054 14.5213 107.509 14.0241 108.084 13.6477C108.659 13.2713 109.313 12.9872 110.044 12.7955C110.783 12.6037 111.557 12.4688 112.367 12.3906C113.319 12.2912 114.086 12.1989 114.668 12.1136C115.25 12.0213 115.673 11.8864 115.936 11.7088C116.199 11.5312 116.33 11.2685 116.33 10.9205V10.8565C116.33 10.1818 116.117 9.6598 115.691 9.29048C115.272 8.92116 114.675 8.73651 113.901 8.73651C113.084 8.73651 112.434 8.91761 111.951 9.27983C111.468 9.63494 111.149 10.0824 110.993 10.6222L106.795 10.2812C107.008 9.28693 107.427 8.42756 108.052 7.70312C108.677 6.97159 109.483 6.41051 110.471 6.01989C111.465 5.62216 112.615 5.4233 113.922 5.4233C114.831 5.4233 115.701 5.52983 116.532 5.7429C117.37 5.95597 118.113 6.28622 118.759 6.73366C119.412 7.18111 119.927 7.75639 120.304 8.45952C120.68 9.15554 120.868 9.99006 120.868 10.9631V22H116.564V19.7308H116.436C116.174 20.2422 115.822 20.6932 115.382 21.0838C114.941 21.4673 114.412 21.7692 113.794 21.9893C113.176 22.2024 112.463 22.3089 111.653 22.3089ZM112.953 19.1768C113.62 19.1768 114.21 19.0455 114.721 18.7827C115.233 18.5128 115.634 18.1506 115.925 17.696C116.216 17.2415 116.362 16.7266 116.362 16.1513V14.4148C116.22 14.5071 116.025 14.5923 115.776 14.6705C115.534 14.7415 115.261 14.8089 114.956 14.8729C114.65 14.9297 114.345 14.983 114.039 15.0327C113.734 15.0753 113.457 15.1143 113.208 15.1499C112.676 15.228 112.211 15.3523 111.813 15.5227C111.415 15.6932 111.106 15.924 110.886 16.2152C110.666 16.4993 110.556 16.8544 110.556 17.2805C110.556 17.8984 110.779 18.3707 111.227 18.6974C111.681 19.017 112.257 19.1768 112.953 19.1768ZM127.042 22.277C126.339 22.277 125.735 22.0284 125.231 21.5312C124.734 21.027 124.485 20.4233 124.485 19.7202C124.485 19.0241 124.734 18.4276 125.231 17.9304C125.735 17.4332 126.339 17.1847 127.042 17.1847C127.724 17.1847 128.32 17.4332 128.832 17.9304C129.343 18.4276 129.599 19.0241 129.599 19.7202C129.599 20.1889 129.478 20.6186 129.237 21.0092C129.002 21.3928 128.693 21.7017 128.31 21.9361C127.926 22.1634 127.504 22.277 127.042 22.277Z" 
    />
</svg>
